# xmcd
#
# Track frame offsets: 
#        150
#        11754
#        23969
#        36972
#        52747
#        64047
#        76427
#        89500
#        101750
#        113683
#
# Disc length: 1669 seconds
#
# Revision: 0
# Processed by: cddbd v1.5.2PL0 Copyright (c) Steve Scherf et al.
# Submitted via: ExactAudioCopy v1.1
#
DISCID=7806830a
DTITLE=Porter Wagoner - Ballads Of Love
DYEAR=1972
DGENRE=Country
TTITLE0=Ballad Of Love
TTITLE1=Love You're So Beautiful Tonight
TTITLE2=Denise Mayree
TTITLE3=Look What Love Has Done To Me
TTITLE4=The Hands Of Love
TTITLE5=Love's Melody
TTITLE6=Love's All Over
TTITLE7=With You
TTITLE8=How Close They Must Be
TTITLE9=Together You And I
EXTD=
EXTT0=
EXTT1=
EXTT2=
EXTT3=
EXTT4=
EXTT5=
EXTT6=
EXTT7=
EXTT8=
EXTT9=
PLAYORDER=
